<?xml version="1.0" encoding="utf-8"?>
<!-- Generator: Adobe Illustrator 16.0.0, SVG Export Plug-In . SVG Version: 6.00 Build 0)  -->
<!DOCTYPE svg PUBLIC "-//W3C//DTD SVG 1.1//EN" "http://www.w3.org/Graphics/SVG/1.1/DTD/svg11.dtd">
<svg version="1.1" id="Layer_1" xmlns="http://www.w3.org/2000/svg" xmlns:xlink="http://www.w3.org/1999/xlink" x="0px" y="0px"
	 width="186px" height="209.322px" viewBox="0 0 186 209.322" enable-background="new 0 0 186 209.322" xml:space="preserve">
<g>
	<rect x="65" y="103.58" fill-rule="evenodd" clip-rule="evenodd" fill="#ED008C" width="22" height="21"/>
	<rect x="65" y="78.58" fill-rule="evenodd" clip-rule="evenodd" fill="#00AEEF" width="22" height="21"/>
	<rect x="39" y="78.58" fill-rule="evenodd" clip-rule="evenodd" fill="#E82C2C" width="22" height="21"/>
	<rect x="39" y="103.58" fill-rule="evenodd" clip-rule="evenodd" fill="#00AA4D" width="22" height="21"/>
	<rect x="65" y="127.58" fill-rule="evenodd" clip-rule="evenodd" fill="#FFF100" width="22" height="21"/>
	<rect x="39" y="127.58" fill-rule="evenodd" clip-rule="evenodd" fill="#323B97" width="22" height="21"/>
	<rect x="65" y="151.58" fill-rule="evenodd" clip-rule="evenodd" fill="#221E1F" width="22" height="21"/>
	<rect x="124" y="101.58" fill-rule="evenodd" clip-rule="evenodd" fill="#ED008C" width="22" height="21"/>
	<rect x="124" y="126.58" fill-rule="evenodd" clip-rule="evenodd" fill="#00AEEF" width="22" height="21"/>
	<rect x="124" y="76.58" fill-rule="evenodd" clip-rule="evenodd" fill="#FFF100" width="22" height="21"/>
	<rect x="98" y="76.58" fill-rule="evenodd" clip-rule="evenodd" fill="#323B97" width="22" height="21"/>
	<rect x="98" y="101.58" fill-rule="evenodd" clip-rule="evenodd" fill="#00AA4D" width="22" height="21"/>
	<rect x="98" y="126.58" fill-rule="evenodd" clip-rule="evenodd" fill="#E82C2C" width="22" height="21"/>
	<rect x="124" y="51.58" fill-rule="evenodd" clip-rule="evenodd" fill="#221E1F" width="22" height="21"/>
</g>
<path d="M178.205,46.487L101.108,2.162c-4.986-2.882-11.433-2.882-16.421,0L7.712,46.487C2.724,49.297,0,55.058,0,60.748V149.4
	c0,5.69,2.732,11.381,7.722,14.262l76.917,43.484c2.181,1.474,5.482,2.176,8.362,2.176s6.958-0.672,9.271-2.047l75.942-43.685
	c4.986-2.81,7.786-8.57,7.786-14.258V60.748C186,55.058,183.191,49.368,178.205,46.487z M173,148.489
	c0,0.772-0.942,1.476-1.647,2.177L94.1,194.994c-0.773,0.702-1.536,0.702-2.238,0l-77.295-43.486
	c-0.702-0.771-1.566-1.473-1.566-2.175V60.748c0-0.772,0.833-1.475,1.536-2.179l77.199-44.328c0.773-0.702,1.51-0.702,2.212,0
	l77.39,44.328c0.705,0.772,1.664,1.477,1.664,2.179V148.489z"/>
</svg>
